<svg xmlns="http://www.w3.org/2000/svg" xmlns:xlink="http://www.w3.org/1999/xlink" version="1.1" width="1290pt" height="1290pt" viewBox="0 0 1290 1290">
<defs>
<clipPath id="clip_0">
<path transform="matrix(1,0,0,-1,0,1290)" d="M0 1290H1290V0H0Z"/>
</clipPath>
</defs>
<g id="layer_1" data-name="">
<g clip-path="url(#clip_0)">
<path transform="matrix(1,0,0,-1,308.6875,812.71597)" d="M0 0-257.341 257.342C-263.337 263.337-266.659 271.631-265.971 280.081-254.332 423.033-145.673 536.124-16.615 550.85 137.676 568.455 291.302 442.068 300.487 266.769 301.34 240.284 283.849 217.238 260.227 211.582 234.053 205.314 205.429 221.613 196.707 249.594 196.017 251.808 195.738 254.164 195.629 256.48 190.104 373.822 91.915 456.13-1.199 446.725-67.925 439.986-128.468 386.509-151.024 312.106-154.164 301.749-151.149 290.475-143.496 282.822-74.55 213.876-5.605 144.931 63.341 75.985 65.808 73.518 67.976 70.693 69.333 67.479 78.622 45.47 73.992 20.539 58.023 5.307 46.117-6.051 31.473-8.614 20.973-8.692 13.096-8.75 5.57-5.57 0 0" fill="#695af2"/>
<path transform="matrix(1,0,0,-1,343.1439,477.9109)" d="M0 0 257.341-257.342C263.337-263.337 266.659-271.631 265.971-280.081 254.332-423.033 145.673-536.124 16.615-550.85-137.676-568.455-291.302-442.068-300.487-266.769-301.34-240.284-283.849-217.238-260.227-211.582-234.053-205.314-205.429-221.613-196.707-249.594-196.017-251.808-195.738-254.164-195.629-256.48-190.104-373.822-91.915-456.13 1.199-446.725 67.925-439.986 128.468-386.509 151.024-312.106 154.164-301.749 151.149-290.475 143.496-282.822 74.55-213.876 5.605-144.931-63.341-75.985-65.808-73.518-67.976-70.693-69.333-67.479-78.622-45.47-73.992-20.539-58.023-5.307-46.117 6.051-31.473 8.614-20.973 8.692-13.096 8.75-5.57 5.57 0 0" fill="#695af2"/>
<path transform="matrix(1,0,0,-1,946.5875,812.71597)" d="M0 0-257.341 257.342C-263.337 263.337-266.659 271.631-265.971 280.081-254.332 423.033-145.674 536.124-16.615 550.85 137.675 568.455 291.302 442.068 300.487 266.769 301.34 240.284 283.849 217.238 260.227 211.582 234.053 205.314 205.429 221.613 196.707 249.594 196.017 251.808 195.738 254.164 195.629 256.48 190.104 373.822 91.915 456.13-1.199 446.725-67.925 439.986-128.468 386.509-151.024 312.106-154.164 301.749-151.149 290.475-143.496 282.822-74.55 213.876-5.605 144.931 63.341 75.985 65.808 73.518 67.976 70.693 69.333 67.479 78.622 45.47 73.992 20.539 58.023 5.307 46.117-6.051 31.473-8.614 20.973-8.692 13.096-8.75 5.57-5.57 0 0" fill="#695af2"/>
<path transform="matrix(1,0,0,-1,981.0439,477.9109)" d="M0 0 257.341-257.342C263.337-263.337 266.659-271.631 265.971-280.081 254.332-423.033 145.674-536.124 16.615-550.85-137.676-568.455-291.302-442.068-300.487-266.769-301.34-240.284-283.849-217.238-260.227-211.582-234.053-205.314-205.429-221.613-196.707-249.594-196.017-251.808-195.738-254.164-195.629-256.48-190.104-373.822-91.915-456.13 1.199-446.725 67.925-439.986 128.468-386.509 151.024-312.106 154.164-301.749 151.149-290.475 143.496-282.822 74.55-213.876 5.605-144.931-63.341-75.985-65.808-73.518-67.976-70.693-69.333-67.479-78.622-45.47-73.992-20.539-58.023-5.307-46.117 6.051-31.473 8.614-20.973 8.692-13.096 8.75-5.57 5.57 0 0" fill="#695af2"/>
</g>
</g>
</svg>
