<svg width="971" height="228" viewBox="0 0 971 228" fill="none" xmlns="http://www.w3.org/2000/svg">
<path d="M296.933 133.45H420.731V91.3081H296.933V46.4645H449.054V0H238.917V228H452.252V180.995H296.933V133.45Z" fill="black"/>
<path fill-rule="evenodd" clip-rule="evenodd" d="M663.302 152.36L718.121 228H652.339L603.002 156.682H545.9V228H487.427V0H626.757C684.316 0 718.578 29.1754 718.578 78.3412C718.578 121.564 692.996 140.474 671.525 149.118L663.302 152.36ZM658.277 80.5024C658.277 57.8104 645.943 46.4645 620.818 46.4645H546.357V114H620.818C645.943 114 658.277 102.654 658.277 80.5024Z" fill="black"/>
<path d="M965.717 39.981V0H750.098V47.0047H885.317L744.616 188.019V228H970.742V180.455H825.017L965.717 39.981Z" fill="black"/>
<path d="M208.767 147.498V99.9526H164.455L150.75 147.498H208.767Z" fill="#EF4C23"/>
<path d="M59.3866 147.498H117.403L131.564 99.9526H59.3866V49.1659H208.767V0H0V228H59.3866V147.498Z" fill="black"/>
</svg>
