<?xml version="1.0" encoding="UTF-8"?>
<!DOCTYPE svg PUBLIC "-//W3C//DTD SVG 1.1//EN" "http://www.w3.org/Graphics/SVG/1.1/DTD/svg11.dtd">
<svg xmlns="http://www.w3.org/2000/svg" version="1.1" width="1064px" height="713px" style="shape-rendering:geometricPrecision; text-rendering:geometricPrecision; image-rendering:optimizeQuality; fill-rule:evenodd; clip-rule:evenodd" xmlns:xlink="http://www.w3.org/1999/xlink">
<g><path style="opacity:0.946" fill="#000000" d="M 521.5,112.5 C 522.496,112.414 523.329,112.748 524,113.5C 524.973,115.392 525.64,117.392 526,119.5C 526.333,124.833 526.667,130.167 527,135.5C 527.333,182.167 527.667,228.833 528,275.5C 539.534,264.298 551.367,253.465 563.5,243C 571.238,235.932 578.238,228.266 584.5,220C 574.703,218.005 564.703,217.005 554.5,217C 551.833,215.333 551.833,213.667 554.5,212C 567.789,210.881 581.122,210.381 594.5,210.5C 607.233,210.362 619.9,210.862 632.5,212C 633.925,213.714 633.592,215.047 631.5,216C 623.885,217.146 616.218,217.812 608.5,218C 604.902,218.154 601.569,219.154 598.5,221C 581.655,237.012 564.988,253.179 548.5,269.5C 575.724,299.221 602.391,329.388 628.5,360C 630.167,361 631.833,362 633.5,363C 640.128,364.052 646.794,364.552 653.5,364.5C 653.5,366.167 653.5,367.833 653.5,369.5C 623.513,369.705 593.513,369.871 563.5,370C 562.167,368.333 562.167,366.667 563.5,365C 569.515,364.465 575.515,363.799 581.5,363C 584.942,362.573 586.442,360.74 586,357.5C 567.795,333.621 548.461,310.621 528,288.5C 527.333,312.833 527.333,337.167 528,361.5C 529.491,363.004 531.324,363.837 533.5,364C 539.528,364.17 545.528,364.67 551.5,365.5C 552.933,367.809 552.266,369.309 549.5,370C 523.803,370.806 498.137,370.639 472.5,369.5C 472.141,367.234 472.808,365.401 474.5,364C 479.5,363.667 484.5,363.333 489.5,363C 491.676,362.837 493.509,362.004 495,360.5C 495.667,285.167 495.667,209.833 495,134.5C 494.25,133.874 493.416,133.374 492.5,133C 486.167,132.667 479.833,132.333 473.5,132C 471.473,130.604 471.14,128.938 472.5,127C 490.307,126.638 506.641,121.804 521.5,112.5 Z"/></g>
<g><path style="opacity:0.961" fill="#000000" d="M 116.5,113.5 C 117.5,113.5 118.5,113.5 119.5,113.5C 120.045,116.813 120.545,120.146 121,123.5C 121.333,158.5 121.667,193.5 122,228.5C 136.234,210.639 154.734,203.806 177.5,208C 199.481,210.98 211.647,223.48 214,245.5C 214.333,284.167 214.667,322.833 215,361.5C 216.491,363.004 218.324,363.837 220.5,364C 225.167,364.333 229.833,364.667 234.5,365C 236.192,366.401 236.859,368.234 236.5,370.5C 211.53,371.638 186.53,371.805 161.5,371C 158.557,369.541 158.224,367.874 160.5,366C 167.125,364.955 173.792,364.289 180.5,364C 181.849,363.228 182.682,362.061 183,360.5C 183.667,324.167 183.667,287.833 183,251.5C 182.963,227.729 171.13,217.229 147.5,220C 133.266,223.894 125.099,233.061 123,247.5C 122.333,284.833 122.333,322.167 123,359.5C 123.11,361.848 124.277,363.348 126.5,364C 132.167,364.333 137.833,364.667 143.5,365C 145.363,366.418 145.863,368.251 145,370.5C 119.667,371.833 94.3333,371.833 69,370.5C 68.2797,368.888 68.4464,367.388 69.5,366C 75.1667,365.667 80.8333,365.333 86.5,365C 88.3289,364.727 89.8289,363.893 91,362.5C 91.6667,291.5 91.6667,220.5 91,149.5C 90.6667,145.167 90.3333,140.833 90,136.5C 88.1509,133.323 85.3176,131.823 81.5,132C 76.5,131.667 71.5,131.333 66.5,131C 63.527,129.776 62.8603,127.776 64.5,125C 82.9742,125.675 100.308,121.841 116.5,113.5 Z"/></g>
<g><path style="opacity:0.951" fill="#000000" d="M 274.5,125.5 C 294.984,123.783 302.151,132.783 296,152.5C 290.331,158.212 283.497,160.045 275.5,158C 268.13,155.273 264.463,149.939 264.5,142C 264.176,134.127 267.51,128.627 274.5,125.5 Z"/></g>
<g><path style="opacity:0.962" fill="#000000" d="M 295.5,206.5 C 296.376,206.369 297.043,206.702 297.5,207.5C 298.189,209.444 298.689,211.444 299,213.5C 299.033,262.861 299.7,312.195 301,361.5C 308.267,363.832 315.767,364.999 323.5,365C 326.167,367 326.167,369 323.5,371C 297.589,370.55 271.755,370.383 246,370.5C 245.137,368.251 245.637,366.418 247.5,365C 253.473,364.093 259.473,363.427 265.5,363C 266.667,362.5 267.5,361.667 268,360.5C 268.667,316.5 268.667,272.5 268,228.5C 267.228,227.151 266.061,226.318 264.5,226C 258.175,225.5 251.842,225.334 245.5,225.5C 245.286,223.856 245.62,222.356 246.5,221C 264.177,220.335 280.51,215.502 295.5,206.5 Z"/></g>
<g><path style="opacity:0.95" fill="#000000" d="M 397.5,207.5 C 421.727,204.074 442.227,211.074 459,228.5C 465.939,238.654 466.106,248.82 459.5,259C 451.5,263.667 443.5,263.667 435.5,259C 432.332,255.825 430.998,251.992 431.5,247.5C 432.217,241.353 433.55,235.353 435.5,229.5C 435.534,226.567 434.701,223.9 433,221.5C 422.709,213.501 411.209,211.334 398.5,215C 385.692,219.808 376.859,228.641 372,241.5C 368.981,249.926 366.981,258.593 366,267.5C 363.586,290.371 365.919,312.704 373,334.5C 381.559,357.027 397.726,366.527 421.5,363C 428.058,361.054 434.058,358.054 439.5,354C 444.544,348.624 449.211,342.958 453.5,337C 455.769,336.242 457.936,336.409 460,337.5C 460.425,341.228 459.425,344.562 457,347.5C 436.123,374.017 409.623,381.517 377.5,370C 350.401,356.984 335.234,335.484 332,305.5C 328.136,272.074 338.636,244.241 363.5,222C 373.842,214.658 385.175,209.824 397.5,207.5 Z"/></g>
<g><path style="opacity:0.949" fill="#000000" d="M 703.5,207.5 C 730.256,203.576 752.089,211.909 769,232.5C 775.035,241.576 777.535,251.409 776.5,262C 747.855,263.235 719.188,263.902 690.5,264C 686.247,264.2 682.08,264.7 678,265.5C 674.306,288.826 676.639,311.492 685,333.5C 700.92,361.362 723.42,368.529 752.5,355C 760.323,346.845 766.99,337.845 772.5,328C 777.667,326.5 779.5,328.333 778,333.5C 763.447,367.362 737.947,380.529 701.5,373C 675.959,365.818 658.125,349.985 648,325.5C 637.113,292.038 641.779,261.038 662,232.5C 673.05,219.398 686.883,211.065 703.5,207.5 Z M 710.5,213.5 C 729.062,212.555 740.229,221.222 744,239.5C 745.131,245.112 745.631,250.779 745.5,256.5C 723.5,256.5 701.5,256.5 679.5,256.5C 681.088,241.826 687.088,229.326 697.5,219C 701.741,216.651 706.075,214.818 710.5,213.5 Z"/></g>
<g><path style="opacity:0.943" fill="#000000" d="M 768.5,211.5 C 795.065,212.173 821.565,212.506 848,212.5C 848.783,214.433 848.283,215.933 846.5,217C 840.539,217.997 834.539,218.663 828.5,219C 826.382,219.26 824.716,220.26 823.5,222C 836.601,259.303 850.101,296.47 864,333.5C 876.594,296.883 888.094,259.883 898.5,222.5C 898.43,221.228 898.097,220.062 897.5,219C 890.867,218.001 884.2,217.168 877.5,216.5C 876.572,215.232 876.405,213.899 877,212.5C 893.6,212.64 910.267,212.307 927,211.5C 928.5,211.667 930,211.833 931.5,212C 933.013,214.454 932.346,216.121 929.5,217C 923.796,217.367 918.13,218.034 912.5,219C 910.951,220.214 909.785,221.714 909,223.5C 896.693,261.395 884.693,299.395 873,337.5C 861.789,372.466 849.789,407.133 837,441.5C 833.891,446.94 830.391,452.107 826.5,457C 814.676,466.674 802.843,466.841 791,457.5C 786.209,449.544 786.376,441.711 791.5,434C 804.103,426.129 813.937,428.629 821,441.5C 821.837,443.007 823.004,443.507 824.5,443C 829.278,435.688 833.111,427.855 836,419.5C 840.908,406.109 845.408,392.609 849.5,379C 829.612,327.339 810.112,275.505 791,223.5C 790.535,222.069 789.701,220.903 788.5,220C 781.787,219.094 775.12,218.094 768.5,217C 767.248,215.172 767.248,213.339 768.5,211.5 Z"/></g>
<g><path style="opacity:0.755" fill="#000000" d="M 938.5,211.5 C 944.167,211.5 949.833,211.5 955.5,211.5C 955.5,212.5 955.5,213.5 955.5,214.5C 953.167,214.5 950.833,214.5 948.5,214.5C 948.5,220.5 948.5,226.5 948.5,232.5C 947.5,232.5 946.5,232.5 945.5,232.5C 945.5,226.5 945.5,220.5 945.5,214.5C 943.167,214.5 940.833,214.5 938.5,214.5C 938.5,213.5 938.5,212.5 938.5,211.5 Z"/></g>
<g><path style="opacity:0.731" fill="#000000" d="M 959.5,211.5 C 960.978,211.238 962.311,211.571 963.5,212.5C 965.147,215.473 967.147,218.14 969.5,220.5C 971.853,218.14 973.853,215.473 975.5,212.5C 976.689,211.571 978.022,211.238 979.5,211.5C 979.5,218.5 979.5,225.5 979.5,232.5C 978.5,232.5 977.5,232.5 976.5,232.5C 976.666,227.489 976.499,222.489 976,217.5C 974.311,220.891 972.144,223.891 969.5,226.5C 967.105,224.056 964.938,221.39 963,218.5C 962.501,223.155 962.334,227.821 962.5,232.5C 961.5,232.5 960.5,232.5 959.5,232.5C 959.5,225.5 959.5,218.5 959.5,211.5 Z"/></g>
<g><path style="opacity:0.936" fill="#ee4035" d="M 982.5,318.5 C 985.358,318.595 987.691,319.762 989.5,322C 988.251,323.824 987.085,323.657 986,321.5C 985.308,322.025 984.808,322.692 984.5,323.5C 989.066,325.731 993.066,328.731 996.5,332.5C 998.327,334.487 999.327,336.821 999.5,339.5C 998.448,339.351 997.448,339.517 996.5,340C 999.6,341.668 1000.1,343.835 998,346.5C 996.89,348.037 995.39,348.703 993.5,348.5C 993.66,350.199 993.494,351.866 993,353.5C 992.333,354.833 991.667,354.833 991,353.5C 989.967,356.033 988.133,357.699 985.5,358.5C 984.614,359.325 984.281,360.325 984.5,361.5C 980.788,362.028 977.121,362.862 973.5,364C 969.833,367 966.167,370 962.5,373C 960.167,373.667 957.833,373.667 955.5,373C 945.95,367.732 936.95,361.732 928.5,355C 925.233,355.063 923.066,353.563 922,350.5C 918.069,329.104 926.902,318.937 948.5,320C 952.708,323.043 956.374,326.543 959.5,330.5C 966.379,323.901 974.046,319.901 982.5,318.5 Z M 988.5,329.5 C 992.006,330.116 992.839,331.783 991,334.5C 989.906,332.922 989.072,331.255 988.5,329.5 Z M 977.5,331.5 C 978.873,331.343 980.207,331.51 981.5,332C 979.359,333.308 977.359,334.808 975.5,336.5C 974.571,335.311 974.238,333.978 974.5,332.5C 975.791,332.737 976.791,332.404 977.5,331.5 Z M 939.5,349.5 C 941.76,350.238 941.927,351.238 940,352.5C 938.272,351.648 938.105,350.648 939.5,349.5 Z M 953.5,351.5 C 951.972,351.483 951.472,350.816 952,349.5C 952.717,350.044 953.217,350.711 953.5,351.5 Z"/></g>
<g><path style="opacity:0.397" fill="#ee3f33" d="M 968.5,369.5 C 971.797,369.329 972.131,369.995 969.5,371.5C 968.702,371.043 968.369,370.376 968.5,369.5 Z"/></g>
<g><path style="opacity:0.89" fill="#000000" d="M 308.5,410.5 C 314.802,410.272 316.969,412.939 315,418.5C 287.848,455.463 262.181,493.463 238,532.5C 230.575,544.851 224.075,557.684 218.5,571C 219.38,572.356 219.714,573.856 219.5,575.5C 252.979,568.92 286.646,563.42 320.5,559C 326,550.833 331.5,542.667 337,534.5C 340.626,526.609 343.626,518.609 346,510.5C 330.02,522.408 312.52,531.575 293.5,538C 281.473,540.641 276.973,536.141 280,524.5C 285.891,511.61 294.391,500.777 305.5,492C 310.885,490.55 312.552,492.383 310.5,497.5C 299.613,506.709 291.946,518.042 287.5,531.5C 296.898,529.139 305.898,525.639 314.5,521C 327.426,513.383 339.759,505.05 351.5,496C 350.167,494.667 350.167,493.333 351.5,492C 353.81,491.503 356.143,491.337 358.5,491.5C 358.393,496.21 358.226,500.877 358,505.5C 365.682,497.073 375.182,493.24 386.5,494C 392.507,495.672 394.673,499.505 393,505.5C 387.697,515.476 380.863,524.309 372.5,532C 373,532.167 373.5,532.333 374,532.5C 390.48,525.846 405.647,517.013 419.5,506C 425.873,499.958 432.54,494.292 439.5,489C 442.702,487.517 446.036,487.183 449.5,488C 451.421,489.241 451.754,490.741 450.5,492.5C 443.859,495.974 438.692,500.974 435,507.5C 431.67,515.322 428.837,523.322 426.5,531.5C 431.636,532.141 436.636,531.308 441.5,529C 459.465,519.943 475.299,508.11 489,493.5C 492.2,486.262 496.033,479.429 500.5,473C 458.163,472.597 415.829,472.597 373.5,473C 370.616,471.963 369.95,470.129 371.5,467.5C 415.824,466.973 460.158,466.14 504.5,465C 510.041,454.746 516.208,444.912 523,435.5C 525.614,431.43 529.114,430.097 533.5,431.5C 533.66,433.199 533.494,434.866 533,436.5C 526.916,445.665 521.083,454.998 515.5,464.5C 527.125,465.593 538.792,466.426 550.5,467C 553.033,469.084 553.033,471.084 550.5,473C 546.409,474.231 542.242,475.065 538,475.5C 532.87,473.517 527.37,472.517 521.5,472.5C 517.833,472.833 514.167,473.167 510.5,473.5C 499.752,490.997 490.585,509.33 483,528.5C 482.503,530.81 482.337,533.143 482.5,535.5C 490.309,534.508 497.642,532.008 504.5,528C 521.532,518.822 537.532,508.155 552.5,496C 555.444,494.062 558.611,492.562 562,491.5C 563.107,491.585 564.107,491.919 565,492.5C 565.798,494.259 565.631,495.926 564.5,497.5C 553.613,506.709 545.946,518.042 541.5,531.5C 550.898,529.139 559.898,525.639 568.5,521C 581.833,512.333 595.167,503.667 608.5,495C 612.969,491.543 617.636,491.043 622.5,493.5C 624.106,499.059 622.106,501.226 616.5,500C 608.333,505.5 601.5,512.333 596,520.5C 593.827,523.346 592.327,526.512 591.5,530C 591.833,530.833 592.167,531.667 592.5,532.5C 614.275,525.033 633.441,513.367 650,497.5C 664.099,472.725 681.265,450.225 701.5,430C 704.502,427.878 707.336,428.045 710,430.5C 710.667,431.5 710.667,432.5 710,433.5C 690.628,452.244 674.128,473.244 660.5,496.5C 660.833,496.833 661.167,497.167 661.5,497.5C 667.397,492.363 674.063,490.863 681.5,493C 685.749,496.377 686.582,500.543 684,505.5C 676.27,514.116 666.77,519.782 655.5,522.5C 655.865,526.737 657.865,529.904 661.5,532C 665.975,532.467 670.309,531.801 674.5,530C 692.679,522.082 709.012,511.416 723.5,498C 725.833,497.333 728.167,497.333 730.5,498C 731.059,498.725 731.392,499.558 731.5,500.5C 730.103,503.406 728.103,505.906 725.5,508C 713.349,517.581 700.349,525.914 686.5,533C 677.993,537.378 668.993,539.378 659.5,539C 652.727,536.98 648.56,532.48 647,525.5C 642.875,530.301 639.542,535.635 637,541.5C 633.313,544.37 630.48,543.703 628.5,539.5C 632.003,532.177 635.17,524.843 638,517.5C 625.166,527.833 610.666,534.833 594.5,538.5C 589.948,538.366 586.115,536.699 583,533.5C 582.44,529.012 582.773,524.679 584,520.5C 573.806,527.181 562.972,532.681 551.5,537C 533.534,541.373 528.367,535.206 536,518.5C 524.739,526.218 512.905,533.051 500.5,539C 493.013,542.499 485.347,543.166 477.5,541C 474.453,538.978 472.786,536.145 472.5,532.5C 474.137,526.774 475.637,521.107 477,515.5C 461.793,528.519 444.293,536.852 424.5,540.5C 421.654,546.161 417.654,546.995 412.5,543C 408.11,538.288 403.443,533.788 398.5,529.5C 390.409,534.377 381.743,537.877 372.5,540C 367.446,540.781 362.446,540.614 357.5,539.5C 356.369,537.926 356.202,536.259 357,534.5C 368.496,524.993 377.996,513.826 385.5,501C 379.67,500.077 374.67,501.744 370.5,506C 355.334,520.5 344.334,537.666 337.5,557.5C 351.522,558.134 365.522,558.967 379.5,560C 384.023,564.406 383.19,567.239 377,568.5C 374.226,567.464 371.393,566.631 368.5,566C 357.12,565.189 345.787,565.355 334.5,566.5C 330.295,577.279 325.795,587.946 321,598.5C 318.766,602.458 315.933,605.958 312.5,609C 309.364,610.041 306.864,609.207 305,606.5C 303.371,592.371 306.871,579.538 315.5,568C 262.387,573.556 210.387,584.222 159.5,600C 157.717,598.933 157.217,597.433 158,595.5C 177.362,586.615 197.529,580.115 218.5,576C 216.048,575.71 213.715,575.044 211.5,574C 210.183,569.825 210.349,565.658 212,561.5C 213.726,557.047 215.726,552.714 218,548.5C 244.919,501.932 274.586,457.265 307,414.5C 307.41,413.099 307.91,411.766 308.5,410.5 Z M 672.5,498.5 C 673.833,498.5 675.167,498.5 676.5,498.5C 675.564,501.959 673.564,504.793 670.5,507C 666.582,509.877 662.415,512.377 658,514.5C 661.841,508.481 666.674,503.148 672.5,498.5 Z M 421.5,514.5 C 420.454,520.685 418.787,526.685 416.5,532.5C 412.933,531.093 409.766,529.093 407,526.5C 406.383,525.551 406.549,524.718 407.5,524C 412.048,520.612 416.714,517.445 421.5,514.5 Z"/></g>
<g><path style="opacity:0.844" fill="#000000" d="M 317.5,474.5 C 319.591,474.318 321.591,474.652 323.5,475.5C 324.888,476.591 325.388,477.924 325,479.5C 321.258,484.291 316.424,486.124 310.5,485C 309.446,483.612 309.28,482.112 310,480.5C 312.688,478.636 315.188,476.636 317.5,474.5 Z"/></g>
<g><path style="opacity:0.844" fill="#000000" d="M 571.5,474.5 C 573.591,474.318 575.591,474.652 577.5,475.5C 578.888,476.591 579.388,477.924 579,479.5C 575.258,484.291 570.424,486.124 564.5,485C 563.446,483.612 563.28,482.112 564,480.5C 566.688,478.636 569.188,476.636 571.5,474.5 Z"/></g>
</svg>
